<svg width="22" height="23" viewBox="0 0 22 23" fill="none" xmlns="http://www.w3.org/2000/svg">
<path d="M15.125 0.280151H6.875C3.07863 0.280151 0 3.43063 0 7.31561V15.7582C0 19.6431 3.07863 22.7936 6.875 22.7936H15.125C18.9214 22.7936 22 19.6431 22 15.7582V7.31561C22 3.43063 18.9214 0.280151 15.125 0.280151ZM19.9375 15.7582C19.9375 18.4738 17.7787 20.683 15.125 20.683H6.875C4.22125 20.683 2.0625 18.4738 2.0625 15.7582V7.31561C2.0625 4.59992 4.22125 2.39079 6.875 2.39079H15.125C17.7787 2.39079 19.9375 4.59992 19.9375 7.31561V15.7582Z" fill="#F13C6E"/>
</svg>
